<?xml version="1.0" encoding="UTF-8" standalone="no"?>
<!DOCTYPE svg PUBLIC "-//W3C//DTD SVG 1.1//EN"
 "http://www.w3.org/Graphics/SVG/1.1/DTD/svg11.dtd">
<!-- Generated by graphviz version 2.47.3 (20210619.1520)
 -->
<!-- Title: dependencies Pages: 1 -->
<svg width="2012pt" height="247pt"
 viewBox="0.00 0.00 2012.00 246.80" xmlns="http://www.w3.org/2000/svg" xmlns:xlink="http://www.w3.org/1999/xlink">
<g id="graph0" class="graph" transform="scale(1 1) rotate(0) translate(4 242.8)">
<title>dependencies</title>
<polygon fill="white" stroke="transparent" points="-4,4 -4,-242.8 2008,-242.8 2008,4 -4,4"/>
<text text-anchor="middle" x="1002" y="-8.2" font-family="sans-serif" font-size="14.00">dependencies</text>
<g id="clust1" class="cluster">
<title>cluster_AppModule</title>
<polygon fill="none" stroke="black" stroke-dasharray="1,5" points="8,-32.8 8,-230.8 1996,-230.8 1996,-32.8 8,-32.8"/>
</g>
<g id="clust16" class="cluster">
<title>cluster_AppModule_imports</title>
<polygon fill="none" stroke="black" points="1844,-40.8 1844,-92.8 1988,-92.8 1988,-40.8 1844,-40.8"/>
</g>
<g id="clust18" class="cluster">
<title>cluster_AppModule_bootstrap</title>
<polygon fill="none" stroke="black" points="953,-170.8 953,-222.8 1077,-222.8 1077,-170.8 953,-170.8"/>
</g>
<g id="clust2" class="cluster">
<title>cluster_AppModule_declarations</title>
<polygon fill="none" stroke="black" points="16,-40.8 16,-92.8 1836,-92.8 1836,-40.8 16,-40.8"/>
</g>
<!-- AboutComponent -->
<g id="node1" class="node">
<title>AboutComponent</title>
<polygon fill="#ffffb3" stroke="black" points="1828.33,-84.8 1711.67,-84.8 1711.67,-48.8 1828.33,-48.8 1828.33,-84.8"/>
<text text-anchor="middle" x="1770" y="-62.6" font-family="Times,serif" font-size="14.00">AboutComponent</text>
</g>
<!-- AppModule -->
<g id="node14" class="node">
<title>AppModule</title>
<polygon fill="#8dd3c7" stroke="black" points="1056.66,-149.8 1053.66,-153.8 1032.66,-153.8 1029.66,-149.8 973.34,-149.8 973.34,-113.8 1056.66,-113.8 1056.66,-149.8"/>
<text text-anchor="middle" x="1015" y="-127.6" font-family="Times,serif" font-size="14.00">AppModule</text>
</g>
<!-- AboutComponent&#45;&gt;AppModule -->
<g id="edge1" class="edge">
<title>AboutComponent&#45;&gt;AppModule</title>
<path fill="none" stroke="black" d="M1770,-84.84C1770,-106.46 1770,-139.8 1770,-139.8 1770,-139.8 1066.67,-139.8 1066.67,-139.8"/>
<polygon fill="black" stroke="black" points="1066.67,-136.3 1056.67,-139.8 1066.67,-143.3 1066.67,-136.3"/>
</g>
<!-- AppComponent -->
<g id="node2" class="node">
<title>AppComponent</title>
<polygon fill="#ffffb3" stroke="black" points="1693.94,-84.8 1588.06,-84.8 1588.06,-48.8 1693.94,-48.8 1693.94,-84.8"/>
<text text-anchor="middle" x="1641" y="-62.6" font-family="Times,serif" font-size="14.00">AppComponent</text>
</g>
<!-- AppComponent&#45;&gt;AppModule -->
<g id="edge2" class="edge">
<title>AppComponent&#45;&gt;AppModule</title>
<path fill="none" stroke="black" d="M1641,-85.02C1641,-105.17 1641,-134.8 1641,-134.8 1641,-134.8 1067.05,-134.8 1067.05,-134.8"/>
<polygon fill="black" stroke="black" points="1067.05,-131.3 1057.05,-134.8 1067.05,-138.3 1067.05,-131.3"/>
</g>
<!-- ContactsComponent -->
<g id="node3" class="node">
<title>ContactsComponent</title>
<polygon fill="#ffffb3" stroke="black" points="1570.32,-84.8 1439.68,-84.8 1439.68,-48.8 1570.32,-48.8 1570.32,-84.8"/>
<text text-anchor="middle" x="1505" y="-62.6" font-family="Times,serif" font-size="14.00">ContactsComponent</text>
</g>
<!-- ContactsComponent&#45;&gt;AppModule -->
<g id="edge3" class="edge">
<title>ContactsComponent&#45;&gt;AppModule</title>
<path fill="none" stroke="black" d="M1505,-85.02C1505,-103.63 1505,-129.8 1505,-129.8 1505,-129.8 1066.78,-129.8 1066.78,-129.8"/>
<polygon fill="black" stroke="black" points="1066.78,-126.3 1056.78,-129.8 1066.78,-133.3 1066.78,-126.3"/>
</g>
<!-- GalleryComponent -->
<g id="node4" class="node">
<title>GalleryComponent</title>
<polygon fill="#ffffb3" stroke="black" points="1421.81,-84.8 1298.19,-84.8 1298.19,-48.8 1421.81,-48.8 1421.81,-84.8"/>
<text text-anchor="middle" x="1360" y="-62.6" font-family="Times,serif" font-size="14.00">GalleryComponent</text>
</g>
<!-- GalleryComponent&#45;&gt;AppModule -->
<g id="edge4" class="edge">
<title>GalleryComponent&#45;&gt;AppModule</title>
<path fill="none" stroke="black" d="M1360,-84.83C1360,-101.86 1360,-124.8 1360,-124.8 1360,-124.8 1066.96,-124.8 1066.96,-124.8"/>
<polygon fill="black" stroke="black" points="1066.96,-121.3 1056.96,-124.8 1066.96,-128.3 1066.96,-121.3"/>
</g>
<!-- HeaderComponent -->
<g id="node5" class="node">
<title>HeaderComponent</title>
<polygon fill="#ffffb3" stroke="black" points="1279.74,-84.8 1158.26,-84.8 1158.26,-48.8 1279.74,-48.8 1279.74,-84.8"/>
<text text-anchor="middle" x="1219" y="-62.6" font-family="Times,serif" font-size="14.00">HeaderComponent</text>
</g>
<!-- HeaderComponent&#45;&gt;AppModule -->
<g id="edge5" class="edge">
<title>HeaderComponent&#45;&gt;AppModule</title>
<path fill="none" stroke="black" d="M1219,-85.04C1219,-100.37 1219,-119.8 1219,-119.8 1219,-119.8 1066.77,-119.8 1066.77,-119.8"/>
<polygon fill="black" stroke="black" points="1066.77,-116.3 1056.77,-119.8 1066.77,-123.3 1066.77,-116.3"/>
</g>
<!-- HomeComponent -->
<g id="node6" class="node">
<title>HomeComponent</title>
<polygon fill="#ffffb3" stroke="black" points="1139.55,-84.8 1024.45,-84.8 1024.45,-48.8 1139.55,-48.8 1139.55,-84.8"/>
<text text-anchor="middle" x="1082" y="-62.6" font-family="Times,serif" font-size="14.00">HomeComponent</text>
</g>
<!-- HomeComponent&#45;&gt;AppModule -->
<g id="edge6" class="edge">
<title>HomeComponent&#45;&gt;AppModule</title>
<path fill="none" stroke="black" d="M1040.53,-84.91C1040.53,-84.91 1040.53,-103.79 1040.53,-103.79"/>
<polygon fill="black" stroke="black" points="1037.03,-103.79 1040.53,-113.79 1044.03,-103.79 1037.03,-103.79"/>
</g>
<!-- LoginComponent -->
<g id="node7" class="node">
<title>LoginComponent</title>
<polygon fill="#ffffb3" stroke="black" points="1006.28,-84.8 891.72,-84.8 891.72,-48.8 1006.28,-48.8 1006.28,-84.8"/>
<text text-anchor="middle" x="949" y="-62.6" font-family="Times,serif" font-size="14.00">LoginComponent</text>
</g>
<!-- LoginComponent&#45;&gt;AppModule -->
<g id="edge7" class="edge">
<title>LoginComponent&#45;&gt;AppModule</title>
<path fill="none" stroke="black" d="M989.78,-84.91C989.78,-84.91 989.78,-103.79 989.78,-103.79"/>
<polygon fill="black" stroke="black" points="986.28,-103.79 989.78,-113.79 993.28,-103.79 986.28,-103.79"/>
</g>
<!-- MoviedetailsComponent -->
<g id="node8" class="node">
<title>MoviedetailsComponent</title>
<polygon fill="#ffffb3" stroke="black" points="873.43,-84.8 718.57,-84.8 718.57,-48.8 873.43,-48.8 873.43,-84.8"/>
<text text-anchor="middle" x="796" y="-62.6" font-family="Times,serif" font-size="14.00">MoviedetailsComponent</text>
</g>
<!-- MoviedetailsComponent&#45;&gt;AppModule -->
<g id="edge8" class="edge">
<title>MoviedetailsComponent&#45;&gt;AppModule</title>
<path fill="none" stroke="black" d="M796,-85.04C796,-100.37 796,-119.8 796,-119.8 796,-119.8 963.29,-119.8 963.29,-119.8"/>
<polygon fill="black" stroke="black" points="963.29,-123.3 973.29,-119.8 963.29,-116.3 963.29,-123.3"/>
</g>
<!-- MoviesComponent -->
<g id="node9" class="node">
<title>MoviesComponent</title>
<polygon fill="#ffffb3" stroke="black" points="700.83,-84.8 577.17,-84.8 577.17,-48.8 700.83,-48.8 700.83,-84.8"/>
<text text-anchor="middle" x="639" y="-62.6" font-family="Times,serif" font-size="14.00">MoviesComponent</text>
</g>
<!-- MoviesComponent&#45;&gt;AppModule -->
<g id="edge9" class="edge">
<title>MoviesComponent&#45;&gt;AppModule</title>
<path fill="none" stroke="black" d="M639,-84.83C639,-101.86 639,-124.8 639,-124.8 639,-124.8 963.32,-124.8 963.32,-124.8"/>
<polygon fill="black" stroke="black" points="963.32,-128.3 973.32,-124.8 963.32,-121.3 963.32,-128.3"/>
</g>
<!-- NavbarComponent -->
<g id="node10" class="node">
<title>NavbarComponent</title>
<polygon fill="#ffffb3" stroke="black" points="559.03,-84.8 436.97,-84.8 436.97,-48.8 559.03,-48.8 559.03,-84.8"/>
<text text-anchor="middle" x="498" y="-62.6" font-family="Times,serif" font-size="14.00">NavbarComponent</text>
</g>
<!-- NavbarComponent&#45;&gt;AppModule -->
<g id="edge10" class="edge">
<title>NavbarComponent&#45;&gt;AppModule</title>
<path fill="none" stroke="black" d="M498,-85.02C498,-103.63 498,-129.8 498,-129.8 498,-129.8 963.13,-129.8 963.13,-129.8"/>
<polygon fill="black" stroke="black" points="963.13,-133.3 973.13,-129.8 963.13,-126.3 963.13,-133.3"/>
</g>
<!-- NotfoundComponent -->
<g id="node11" class="node">
<title>NotfoundComponent</title>
<polygon fill="#ffffb3" stroke="black" points="418.49,-84.8 283.51,-84.8 283.51,-48.8 418.49,-48.8 418.49,-84.8"/>
<text text-anchor="middle" x="351" y="-62.6" font-family="Times,serif" font-size="14.00">NotfoundComponent</text>
</g>
<!-- NotfoundComponent&#45;&gt;AppModule -->
<g id="edge11" class="edge">
<title>NotfoundComponent&#45;&gt;AppModule</title>
<path fill="none" stroke="black" d="M351,-85.02C351,-105.17 351,-134.8 351,-134.8 351,-134.8 963.21,-134.8 963.21,-134.8"/>
<polygon fill="black" stroke="black" points="963.21,-138.3 973.21,-134.8 963.21,-131.3 963.21,-138.3"/>
</g>
<!-- RegisterComponent -->
<g id="node12" class="node">
<title>RegisterComponent</title>
<polygon fill="#ffffb3" stroke="black" points="265.98,-84.8 138.02,-84.8 138.02,-48.8 265.98,-48.8 265.98,-84.8"/>
<text text-anchor="middle" x="202" y="-62.6" font-family="Times,serif" font-size="14.00">RegisterComponent</text>
</g>
<!-- RegisterComponent&#45;&gt;AppModule -->
<g id="edge12" class="edge">
<title>RegisterComponent&#45;&gt;AppModule</title>
<path fill="none" stroke="black" d="M202,-84.84C202,-106.46 202,-139.8 202,-139.8 202,-139.8 963.28,-139.8 963.28,-139.8"/>
<polygon fill="black" stroke="black" points="963.28,-143.3 973.28,-139.8 963.28,-136.3 963.28,-143.3"/>
</g>
<!-- TvComponent -->
<g id="node13" class="node">
<title>TvComponent</title>
<polygon fill="#ffffb3" stroke="black" points="120.39,-84.8 23.61,-84.8 23.61,-48.8 120.39,-48.8 120.39,-84.8"/>
<text text-anchor="middle" x="72" y="-62.6" font-family="Times,serif" font-size="14.00">TvComponent</text>
</g>
<!-- TvComponent&#45;&gt;AppModule -->
<g id="edge13" class="edge">
<title>TvComponent&#45;&gt;AppModule</title>
<path fill="none" stroke="black" d="M72,-84.89C72,-107.93 72,-144.8 72,-144.8 72,-144.8 963.26,-144.8 963.26,-144.8"/>
<polygon fill="black" stroke="black" points="963.26,-148.3 973.26,-144.8 963.26,-141.3 963.26,-148.3"/>
</g>
<!-- AppComponent  -->
<g id="node16" class="node">
<title>AppComponent </title>
<polygon fill="#80b1d3" stroke="black" points="1069.44,-214.8 960.56,-214.8 960.56,-178.8 1069.44,-178.8 1069.44,-214.8"/>
<text text-anchor="middle" x="1015" y="-192.6" font-family="Times,serif" font-size="14.00">AppComponent </text>
</g>
<!-- AppModule&#45;&gt;AppComponent  -->
<g id="edge15" class="edge">
<title>AppModule&#45;&gt;AppComponent </title>
<path fill="none" stroke="black" stroke-dasharray="1,5" d="M1015,-149.91C1015,-149.91 1015,-168.79 1015,-168.79"/>
<polygon fill="black" stroke="black" points="1011.5,-168.79 1015,-178.79 1018.5,-168.79 1011.5,-168.79"/>
</g>
<!-- AppRoutingModule -->
<g id="node15" class="node">
<title>AppRoutingModule</title>
<polygon fill="#8dd3c7" stroke="black" points="1980.27,-84.8 1977.27,-88.8 1956.27,-88.8 1953.27,-84.8 1851.73,-84.8 1851.73,-48.8 1980.27,-48.8 1980.27,-84.8"/>
<text text-anchor="middle" x="1916" y="-62.6" font-family="Times,serif" font-size="14.00">AppRoutingModule</text>
</g>
<!-- AppRoutingModule&#45;&gt;AppModule -->
<g id="edge14" class="edge">
<title>AppRoutingModule&#45;&gt;AppModule</title>
<path fill="none" stroke="black" d="M1916,-84.89C1916,-107.93 1916,-144.8 1916,-144.8 1916,-144.8 1066.95,-144.8 1066.95,-144.8"/>
<polygon fill="black" stroke="black" points="1066.95,-141.3 1056.95,-144.8 1066.95,-148.3 1066.95,-141.3"/>
</g>
</g>
</svg>
