<?xml version="1.0" encoding="UTF-8" standalone="no"?>
<!DOCTYPE svg PUBLIC "-//W3C//DTD SVG 1.1//EN"
 "http://www.w3.org/Graphics/SVG/1.1/DTD/svg11.dtd">
<!-- Generated by graphviz version 2.47.3 (20210619.1520)
 -->
<!-- Title: dependencies Pages: 1 -->
<svg width="2620pt" height="247pt"
 viewBox="0.00 0.00 2620.00 246.80" xmlns="http://www.w3.org/2000/svg" xmlns:xlink="http://www.w3.org/1999/xlink">
<g id="graph0" class="graph" transform="scale(1 1) rotate(0) translate(4 242.8)">
<title>dependencies</title>
<polygon fill="white" stroke="transparent" points="-4,4 -4,-242.8 2616,-242.8 2616,4 -4,4"/>
<text text-anchor="middle" x="1306" y="-8.2" font-family="sans-serif" font-size="14.00">dependencies</text>
<g id="clust1" class="cluster">
<title>cluster_AppModule</title>
<polygon fill="none" stroke="black" stroke-dasharray="1,5" points="8,-32.8 8,-230.8 1996,-230.8 1996,-32.8 8,-32.8"/>
</g>
<g id="clust2" class="cluster">
<title>cluster_AppModule_declarations</title>
<polygon fill="none" stroke="black" points="168,-40.8 168,-92.8 1988,-92.8 1988,-40.8 168,-40.8"/>
</g>
<g id="clust16" class="cluster">
<title>cluster_AppModule_imports</title>
<polygon fill="none" stroke="black" points="16,-40.8 16,-92.8 160,-92.8 160,-40.8 16,-40.8"/>
</g>
<g id="clust18" class="cluster">
<title>cluster_AppModule_bootstrap</title>
<polygon fill="none" stroke="black" points="962,-170.8 962,-222.8 1086,-222.8 1086,-170.8 962,-170.8"/>
</g>
<g id="clust26" class="cluster">
<title>cluster_SettingsModule</title>
<polygon fill="none" stroke="black" stroke-dasharray="1,5" points="2004,-32.8 2004,-157.8 2604,-157.8 2604,-32.8 2004,-32.8"/>
</g>
<g id="clust27" class="cluster">
<title>cluster_SettingsModule_declarations</title>
<polygon fill="none" stroke="black" points="2186,-40.8 2186,-92.8 2596,-92.8 2596,-40.8 2186,-40.8"/>
</g>
<g id="clust31" class="cluster">
<title>cluster_SettingsModule_imports</title>
<polygon fill="none" stroke="black" points="2012,-40.8 2012,-92.8 2178,-92.8 2178,-40.8 2012,-40.8"/>
</g>
<!-- AboutComponent -->
<g id="node1" class="node">
<title>AboutComponent</title>
<polygon fill="#ffffb3" stroke="black" points="1980.33,-84.8 1863.67,-84.8 1863.67,-48.8 1980.33,-48.8 1980.33,-84.8"/>
<text text-anchor="middle" x="1922" y="-62.6" font-family="Times,serif" font-size="14.00">AboutComponent</text>
</g>
<!-- AppModule -->
<g id="node14" class="node">
<title>AppModule</title>
<polygon fill="#8dd3c7" stroke="black" points="1065.66,-149.8 1062.66,-153.8 1041.66,-153.8 1038.66,-149.8 982.34,-149.8 982.34,-113.8 1065.66,-113.8 1065.66,-149.8"/>
<text text-anchor="middle" x="1024" y="-127.6" font-family="Times,serif" font-size="14.00">AppModule</text>
</g>
<!-- AboutComponent&#45;&gt;AppModule -->
<g id="edge1" class="edge">
<title>AboutComponent&#45;&gt;AppModule</title>
<path fill="none" stroke="black" d="M1922,-85.12C1922,-108.46 1922,-145.8 1922,-145.8 1922,-145.8 1075.81,-145.8 1075.81,-145.8"/>
<polygon fill="black" stroke="black" points="1075.81,-142.3 1065.81,-145.8 1075.81,-149.3 1075.81,-142.3"/>
</g>
<!-- AppComponent -->
<g id="node2" class="node">
<title>AppComponent</title>
<polygon fill="#ffffb3" stroke="black" points="1845.94,-84.8 1740.06,-84.8 1740.06,-48.8 1845.94,-48.8 1845.94,-84.8"/>
<text text-anchor="middle" x="1793" y="-62.6" font-family="Times,serif" font-size="14.00">AppComponent</text>
</g>
<!-- AppComponent&#45;&gt;AppModule -->
<g id="edge2" class="edge">
<title>AppComponent&#45;&gt;AppModule</title>
<path fill="none" stroke="black" d="M1793,-85.09C1793,-107.01 1793,-140.8 1793,-140.8 1793,-140.8 1075.89,-140.8 1075.89,-140.8"/>
<polygon fill="black" stroke="black" points="1075.89,-137.3 1065.89,-140.8 1075.89,-144.3 1075.89,-137.3"/>
</g>
<!-- ContactsComponent -->
<g id="node3" class="node">
<title>ContactsComponent</title>
<polygon fill="#ffffb3" stroke="black" points="1722.32,-84.8 1591.68,-84.8 1591.68,-48.8 1722.32,-48.8 1722.32,-84.8"/>
<text text-anchor="middle" x="1657" y="-62.6" font-family="Times,serif" font-size="14.00">ContactsComponent</text>
</g>
<!-- ContactsComponent&#45;&gt;AppModule -->
<g id="edge3" class="edge">
<title>ContactsComponent&#45;&gt;AppModule</title>
<path fill="none" stroke="black" d="M1657,-84.83C1657,-105.57 1657,-136.8 1657,-136.8 1657,-136.8 1076.02,-136.8 1076.02,-136.8"/>
<polygon fill="black" stroke="black" points="1076.02,-133.3 1066.02,-136.8 1076.02,-140.3 1076.02,-133.3"/>
</g>
<!-- GalleryComponent -->
<g id="node4" class="node">
<title>GalleryComponent</title>
<polygon fill="#ffffb3" stroke="black" points="1573.81,-84.8 1450.19,-84.8 1450.19,-48.8 1573.81,-48.8 1573.81,-84.8"/>
<text text-anchor="middle" x="1512" y="-62.6" font-family="Times,serif" font-size="14.00">GalleryComponent</text>
</g>
<!-- GalleryComponent&#45;&gt;AppModule -->
<g id="edge4" class="edge">
<title>GalleryComponent&#45;&gt;AppModule</title>
<path fill="none" stroke="black" d="M1512,-84.91C1512,-104.14 1512,-131.8 1512,-131.8 1512,-131.8 1076.03,-131.8 1076.03,-131.8"/>
<polygon fill="black" stroke="black" points="1076.03,-128.3 1066.03,-131.8 1076.03,-135.3 1076.03,-128.3"/>
</g>
<!-- HeaderComponent -->
<g id="node5" class="node">
<title>HeaderComponent</title>
<polygon fill="#ffffb3" stroke="black" points="1431.74,-84.8 1310.26,-84.8 1310.26,-48.8 1431.74,-48.8 1431.74,-84.8"/>
<text text-anchor="middle" x="1371" y="-62.6" font-family="Times,serif" font-size="14.00">HeaderComponent</text>
</g>
<!-- HeaderComponent&#45;&gt;AppModule -->
<g id="edge5" class="edge">
<title>HeaderComponent&#45;&gt;AppModule</title>
<path fill="none" stroke="black" d="M1371,-85.1C1371,-103.07 1371,-127.8 1371,-127.8 1371,-127.8 1075.86,-127.8 1075.86,-127.8"/>
<polygon fill="black" stroke="black" points="1075.86,-124.3 1065.86,-127.8 1075.86,-131.3 1075.86,-124.3"/>
</g>
<!-- HomeComponent -->
<g id="node6" class="node">
<title>HomeComponent</title>
<polygon fill="#ffffb3" stroke="black" points="1291.55,-84.8 1176.45,-84.8 1176.45,-48.8 1291.55,-48.8 1291.55,-84.8"/>
<text text-anchor="middle" x="1234" y="-62.6" font-family="Times,serif" font-size="14.00">HomeComponent</text>
</g>
<!-- HomeComponent&#45;&gt;AppModule -->
<g id="edge6" class="edge">
<title>HomeComponent&#45;&gt;AppModule</title>
<path fill="none" stroke="black" d="M1234,-84.83C1234,-101.2 1234,-122.8 1234,-122.8 1234,-122.8 1075.74,-122.8 1075.74,-122.8"/>
<polygon fill="black" stroke="black" points="1075.74,-119.3 1065.74,-122.8 1075.74,-126.3 1075.74,-119.3"/>
</g>
<!-- LoginComponent -->
<g id="node7" class="node">
<title>LoginComponent</title>
<polygon fill="#ffffb3" stroke="black" points="1158.28,-84.8 1043.72,-84.8 1043.72,-48.8 1158.28,-48.8 1158.28,-84.8"/>
<text text-anchor="middle" x="1101" y="-62.6" font-family="Times,serif" font-size="14.00">LoginComponent</text>
</g>
<!-- LoginComponent&#45;&gt;AppModule -->
<g id="edge7" class="edge">
<title>LoginComponent&#45;&gt;AppModule</title>
<path fill="none" stroke="black" d="M1054.72,-84.91C1054.72,-84.91 1054.72,-103.79 1054.72,-103.79"/>
<polygon fill="black" stroke="black" points="1051.22,-103.79 1054.72,-113.79 1058.22,-103.79 1051.22,-103.79"/>
</g>
<!-- MoviedetailsComponent -->
<g id="node8" class="node">
<title>MoviedetailsComponent</title>
<polygon fill="#ffffb3" stroke="black" points="1025.43,-84.8 870.57,-84.8 870.57,-48.8 1025.43,-48.8 1025.43,-84.8"/>
<text text-anchor="middle" x="948" y="-62.6" font-family="Times,serif" font-size="14.00">MoviedetailsComponent</text>
</g>
<!-- MoviedetailsComponent&#45;&gt;AppModule -->
<g id="edge8" class="edge">
<title>MoviedetailsComponent&#45;&gt;AppModule</title>
<path fill="none" stroke="black" d="M1003.69,-84.91C1003.69,-84.91 1003.69,-103.79 1003.69,-103.79"/>
<polygon fill="black" stroke="black" points="1000.19,-103.79 1003.69,-113.79 1007.19,-103.79 1000.19,-103.79"/>
</g>
<!-- MoviesComponent -->
<g id="node9" class="node">
<title>MoviesComponent</title>
<polygon fill="#ffffb3" stroke="black" points="852.83,-84.8 729.17,-84.8 729.17,-48.8 852.83,-48.8 852.83,-84.8"/>
<text text-anchor="middle" x="791" y="-62.6" font-family="Times,serif" font-size="14.00">MoviesComponent</text>
</g>
<!-- MoviesComponent&#45;&gt;AppModule -->
<g id="edge9" class="edge">
<title>MoviesComponent&#45;&gt;AppModule</title>
<path fill="none" stroke="black" d="M791,-85.04C791,-100.37 791,-119.8 791,-119.8 791,-119.8 972.08,-119.8 972.08,-119.8"/>
<polygon fill="black" stroke="black" points="972.08,-123.3 982.08,-119.8 972.08,-116.3 972.08,-123.3"/>
</g>
<!-- NavbarComponent -->
<g id="node10" class="node">
<title>NavbarComponent</title>
<polygon fill="#ffffb3" stroke="black" points="711.03,-84.8 588.97,-84.8 588.97,-48.8 711.03,-48.8 711.03,-84.8"/>
<text text-anchor="middle" x="650" y="-62.6" font-family="Times,serif" font-size="14.00">NavbarComponent</text>
</g>
<!-- NavbarComponent&#45;&gt;AppModule -->
<g id="edge10" class="edge">
<title>NavbarComponent&#45;&gt;AppModule</title>
<path fill="none" stroke="black" d="M650,-84.83C650,-101.86 650,-124.8 650,-124.8 650,-124.8 972.19,-124.8 972.19,-124.8"/>
<polygon fill="black" stroke="black" points="972.19,-128.3 982.19,-124.8 972.19,-121.3 972.19,-128.3"/>
</g>
<!-- NotfoundComponent -->
<g id="node11" class="node">
<title>NotfoundComponent</title>
<polygon fill="#ffffb3" stroke="black" points="570.49,-84.8 435.51,-84.8 435.51,-48.8 570.49,-48.8 570.49,-84.8"/>
<text text-anchor="middle" x="503" y="-62.6" font-family="Times,serif" font-size="14.00">NotfoundComponent</text>
</g>
<!-- NotfoundComponent&#45;&gt;AppModule -->
<g id="edge11" class="edge">
<title>NotfoundComponent&#45;&gt;AppModule</title>
<path fill="none" stroke="black" d="M503,-85.02C503,-103.63 503,-129.8 503,-129.8 503,-129.8 972.25,-129.8 972.25,-129.8"/>
<polygon fill="black" stroke="black" points="972.25,-133.3 982.25,-129.8 972.25,-126.3 972.25,-133.3"/>
</g>
<!-- RegisterComponent -->
<g id="node12" class="node">
<title>RegisterComponent</title>
<polygon fill="#ffffb3" stroke="black" points="417.98,-84.8 290.02,-84.8 290.02,-48.8 417.98,-48.8 417.98,-84.8"/>
<text text-anchor="middle" x="354" y="-62.6" font-family="Times,serif" font-size="14.00">RegisterComponent</text>
</g>
<!-- RegisterComponent&#45;&gt;AppModule -->
<g id="edge12" class="edge">
<title>RegisterComponent&#45;&gt;AppModule</title>
<path fill="none" stroke="black" d="M354,-85.02C354,-105.17 354,-134.8 354,-134.8 354,-134.8 972.34,-134.8 972.34,-134.8"/>
<polygon fill="black" stroke="black" points="972.34,-138.3 982.34,-134.8 972.34,-131.3 972.34,-138.3"/>
</g>
<!-- TvComponent -->
<g id="node13" class="node">
<title>TvComponent</title>
<polygon fill="#ffffb3" stroke="black" points="272.39,-84.8 175.61,-84.8 175.61,-48.8 272.39,-48.8 272.39,-84.8"/>
<text text-anchor="middle" x="224" y="-62.6" font-family="Times,serif" font-size="14.00">TvComponent</text>
</g>
<!-- TvComponent&#45;&gt;AppModule -->
<g id="edge13" class="edge">
<title>TvComponent&#45;&gt;AppModule</title>
<path fill="none" stroke="black" d="M224,-84.84C224,-106.46 224,-139.8 224,-139.8 224,-139.8 972.11,-139.8 972.11,-139.8"/>
<polygon fill="black" stroke="black" points="972.11,-143.3 982.11,-139.8 972.11,-136.3 972.11,-143.3"/>
</g>
<!-- AppComponent  -->
<g id="node16" class="node">
<title>AppComponent </title>
<polygon fill="#80b1d3" stroke="black" points="1078.44,-214.8 969.56,-214.8 969.56,-178.8 1078.44,-178.8 1078.44,-214.8"/>
<text text-anchor="middle" x="1024" y="-192.6" font-family="Times,serif" font-size="14.00">AppComponent </text>
</g>
<!-- AppModule&#45;&gt;AppComponent  -->
<g id="edge15" class="edge">
<title>AppModule&#45;&gt;AppComponent </title>
<path fill="none" stroke="black" stroke-dasharray="1,5" d="M1024,-149.91C1024,-149.91 1024,-168.79 1024,-168.79"/>
<polygon fill="black" stroke="black" points="1020.5,-168.79 1024,-178.79 1027.5,-168.79 1020.5,-168.79"/>
</g>
<!-- AppRoutingModule -->
<g id="node15" class="node">
<title>AppRoutingModule</title>
<polygon fill="#8dd3c7" stroke="black" points="152.27,-84.8 149.27,-88.8 128.27,-88.8 125.27,-84.8 23.73,-84.8 23.73,-48.8 152.27,-48.8 152.27,-84.8"/>
<text text-anchor="middle" x="88" y="-62.6" font-family="Times,serif" font-size="14.00">AppRoutingModule</text>
</g>
<!-- AppRoutingModule&#45;&gt;AppModule -->
<g id="edge14" class="edge">
<title>AppRoutingModule&#45;&gt;AppModule</title>
<path fill="none" stroke="black" d="M88,-84.89C88,-107.93 88,-144.8 88,-144.8 88,-144.8 972.27,-144.8 972.27,-144.8"/>
<polygon fill="black" stroke="black" points="972.27,-148.3 982.27,-144.8 972.27,-141.3 972.27,-148.3"/>
</g>
<!-- LogComponent -->
<g id="node17" class="node">
<title>LogComponent</title>
<polygon fill="#ffffb3" stroke="black" points="2587.89,-84.8 2484.11,-84.8 2484.11,-48.8 2587.89,-48.8 2587.89,-84.8"/>
<text text-anchor="middle" x="2536" y="-62.6" font-family="Times,serif" font-size="14.00">LogComponent</text>
</g>
<!-- SettingsModule -->
<g id="node20" class="node">
<title>SettingsModule</title>
<polygon fill="#8dd3c7" stroke="black" points="2378.16,-149.8 2375.16,-153.8 2354.16,-153.8 2351.16,-149.8 2273.84,-149.8 2273.84,-113.8 2378.16,-113.8 2378.16,-149.8"/>
<text text-anchor="middle" x="2326" y="-127.6" font-family="Times,serif" font-size="14.00">SettingsModule</text>
</g>
<!-- LogComponent&#45;&gt;SettingsModule -->
<g id="edge16" class="edge">
<title>LogComponent&#45;&gt;SettingsModule</title>
<path fill="none" stroke="black" d="M2536,-84.91C2536,-104.14 2536,-131.8 2536,-131.8 2536,-131.8 2388.18,-131.8 2388.18,-131.8"/>
<polygon fill="black" stroke="black" points="2388.18,-128.3 2378.18,-131.8 2388.18,-135.3 2388.18,-128.3"/>
</g>
<!-- PasswordComponent -->
<g id="node18" class="node">
<title>PasswordComponent</title>
<polygon fill="#ffffb3" stroke="black" points="2466.49,-84.8 2331.51,-84.8 2331.51,-48.8 2466.49,-48.8 2466.49,-84.8"/>
<text text-anchor="middle" x="2399" y="-62.6" font-family="Times,serif" font-size="14.00">PasswordComponent</text>
</g>
<!-- PasswordComponent&#45;&gt;SettingsModule -->
<g id="edge17" class="edge">
<title>PasswordComponent&#45;&gt;SettingsModule</title>
<path fill="none" stroke="black" d="M2354.92,-84.91C2354.92,-84.91 2354.92,-103.79 2354.92,-103.79"/>
<polygon fill="black" stroke="black" points="2351.42,-103.79 2354.92,-113.79 2358.42,-103.79 2351.42,-103.79"/>
</g>
<!-- ProfileComponent -->
<g id="node19" class="node">
<title>ProfileComponent</title>
<polygon fill="#ffffb3" stroke="black" points="2313.93,-84.8 2194.07,-84.8 2194.07,-48.8 2313.93,-48.8 2313.93,-84.8"/>
<text text-anchor="middle" x="2254" y="-62.6" font-family="Times,serif" font-size="14.00">ProfileComponent</text>
</g>
<!-- ProfileComponent&#45;&gt;SettingsModule -->
<g id="edge18" class="edge">
<title>ProfileComponent&#45;&gt;SettingsModule</title>
<path fill="none" stroke="black" d="M2293.69,-84.91C2293.69,-84.91 2293.69,-103.79 2293.69,-103.79"/>
<polygon fill="black" stroke="black" points="2290.19,-103.79 2293.69,-113.79 2297.19,-103.79 2290.19,-103.79"/>
</g>
<!-- SettingsRoutingModule -->
<g id="node21" class="node">
<title>SettingsRoutingModule</title>
<polygon fill="#8dd3c7" stroke="black" points="2169.78,-84.8 2166.78,-88.8 2145.78,-88.8 2142.78,-84.8 2020.22,-84.8 2020.22,-48.8 2169.78,-48.8 2169.78,-84.8"/>
<text text-anchor="middle" x="2095" y="-62.6" font-family="Times,serif" font-size="14.00">SettingsRoutingModule</text>
</g>
<!-- SettingsRoutingModule&#45;&gt;SettingsModule -->
<g id="edge19" class="edge">
<title>SettingsRoutingModule&#45;&gt;SettingsModule</title>
<path fill="none" stroke="black" d="M2095,-84.99C2095,-99.98 2095,-118.8 2095,-118.8 2095,-118.8 2263.58,-118.8 2263.58,-118.8"/>
<polygon fill="black" stroke="black" points="2263.58,-122.3 2273.58,-118.8 2263.58,-115.3 2263.58,-122.3"/>
</g>
</g>
</svg>
