<?xml version="1.0" encoding="UTF-8" standalone="no"?>
<!DOCTYPE svg PUBLIC "-//W3C//DTD SVG 1.1//EN"
 "http://www.w3.org/Graphics/SVG/1.1/DTD/svg11.dtd">
<!-- Generated by graphviz version 2.47.3 (20210619.1520)
 -->
<!-- Title: dependencies Pages: 1 -->
<svg width="624pt" height="174pt"
 viewBox="0.00 0.00 624.00 173.80" xmlns="http://www.w3.org/2000/svg" xmlns:xlink="http://www.w3.org/1999/xlink">
<g id="graph0" class="graph" transform="scale(1 1) rotate(0) translate(4 169.8)">
<title>dependencies</title>
<polygon fill="white" stroke="transparent" points="-4,4 -4,-169.8 620,-169.8 620,4 -4,4"/>
<text text-anchor="middle" x="308" y="-8.2" font-family="sans-serif" font-size="14.00">dependencies</text>
<g id="clust1" class="cluster">
<title>cluster_SettingsModule</title>
<polygon fill="none" stroke="black" stroke-dasharray="1,5" points="8,-32.8 8,-157.8 608,-157.8 608,-32.8 8,-32.8"/>
</g>
<g id="clust6" class="cluster">
<title>cluster_SettingsModule_imports</title>
<polygon fill="none" stroke="black" points="434,-40.8 434,-92.8 600,-92.8 600,-40.8 434,-40.8"/>
</g>
<g id="clust2" class="cluster">
<title>cluster_SettingsModule_declarations</title>
<polygon fill="none" stroke="black" points="16,-40.8 16,-92.8 426,-92.8 426,-40.8 16,-40.8"/>
</g>
<!-- LogComponent -->
<g id="node1" class="node">
<title>LogComponent</title>
<polygon fill="#ffffb3" stroke="black" points="417.89,-84.8 314.11,-84.8 314.11,-48.8 417.89,-48.8 417.89,-84.8"/>
<text text-anchor="middle" x="366" y="-62.6" font-family="Times,serif" font-size="14.00">LogComponent</text>
</g>
<!-- SettingsModule -->
<g id="node4" class="node">
<title>SettingsModule</title>
<polygon fill="#8dd3c7" stroke="black" points="349.16,-149.8 346.16,-153.8 325.16,-153.8 322.16,-149.8 244.84,-149.8 244.84,-113.8 349.16,-113.8 349.16,-149.8"/>
<text text-anchor="middle" x="297" y="-127.6" font-family="Times,serif" font-size="14.00">SettingsModule</text>
</g>
<!-- LogComponent&#45;&gt;SettingsModule -->
<g id="edge1" class="edge">
<title>LogComponent&#45;&gt;SettingsModule</title>
<path fill="none" stroke="black" d="M331.69,-84.91C331.69,-84.91 331.69,-103.79 331.69,-103.79"/>
<polygon fill="black" stroke="black" points="328.19,-103.79 331.69,-113.79 335.19,-103.79 328.19,-103.79"/>
</g>
<!-- PasswordComponent -->
<g id="node2" class="node">
<title>PasswordComponent</title>
<polygon fill="#ffffb3" stroke="black" points="296.49,-84.8 161.51,-84.8 161.51,-48.8 296.49,-48.8 296.49,-84.8"/>
<text text-anchor="middle" x="229" y="-62.6" font-family="Times,serif" font-size="14.00">PasswordComponent</text>
</g>
<!-- PasswordComponent&#45;&gt;SettingsModule -->
<g id="edge2" class="edge">
<title>PasswordComponent&#45;&gt;SettingsModule</title>
<path fill="none" stroke="black" d="M270.58,-84.91C270.58,-84.91 270.58,-103.79 270.58,-103.79"/>
<polygon fill="black" stroke="black" points="267.08,-103.79 270.58,-113.79 274.08,-103.79 267.08,-103.79"/>
</g>
<!-- ProfileComponent -->
<g id="node3" class="node">
<title>ProfileComponent</title>
<polygon fill="#ffffb3" stroke="black" points="143.93,-84.8 24.07,-84.8 24.07,-48.8 143.93,-48.8 143.93,-84.8"/>
<text text-anchor="middle" x="84" y="-62.6" font-family="Times,serif" font-size="14.00">ProfileComponent</text>
</g>
<!-- ProfileComponent&#45;&gt;SettingsModule -->
<g id="edge3" class="edge">
<title>ProfileComponent&#45;&gt;SettingsModule</title>
<path fill="none" stroke="black" d="M84,-84.91C84,-104.14 84,-131.8 84,-131.8 84,-131.8 234.62,-131.8 234.62,-131.8"/>
<polygon fill="black" stroke="black" points="234.62,-135.3 244.62,-131.8 234.62,-128.3 234.62,-135.3"/>
</g>
<!-- SettingsRoutingModule -->
<g id="node5" class="node">
<title>SettingsRoutingModule</title>
<polygon fill="#8dd3c7" stroke="black" points="591.78,-84.8 588.78,-88.8 567.78,-88.8 564.78,-84.8 442.22,-84.8 442.22,-48.8 591.78,-48.8 591.78,-84.8"/>
<text text-anchor="middle" x="517" y="-62.6" font-family="Times,serif" font-size="14.00">SettingsRoutingModule</text>
</g>
<!-- SettingsRoutingModule&#45;&gt;SettingsModule -->
<g id="edge4" class="edge">
<title>SettingsRoutingModule&#45;&gt;SettingsModule</title>
<path fill="none" stroke="black" d="M517,-84.91C517,-104.14 517,-131.8 517,-131.8 517,-131.8 359.42,-131.8 359.42,-131.8"/>
<polygon fill="black" stroke="black" points="359.42,-128.3 349.42,-131.8 359.42,-135.3 359.42,-128.3"/>
</g>
</g>
</svg>
